<svg xmlns="http://www.w3.org/2000/svg" height="800" width="1200" viewBox="-36.39048 -12.115725 315.38416 72.69435"><path d="M26.455 0C12.3747.0004 0 11.1468 0 24.8965c0 13.7488 12.376 23.5664 26.3613 23.5664l24.957-.016 4.3887-.01c.456 0 4.647.023 5.1094 0 3.42-.016 6.3491-2.0482 7.6523-4.9687l.3887-.8692 4.3183-8.0507h22.4278l4.879 10.7578c.819 1.7797 2.7838 3.0345 5.2206 3.1504h16.672L104.0233 4.06c-.8305-2.2231-3.1647-3.9375-5.8906-3.9375H86.2324c-2.5803 0-4.6128 1.7891-5.7969 4.0098L61.4433 39.769c-.92 1.9045-3.0914 3.3606-5.4863 3.3593l-16.4375.045c-.327 0-1.5778-.012-1.9102-.016-10.436.01-18.8886-8.4401-18.8886-18.8652 0-10.4262 8.4514-18.8769 18.877-18.8769.5285-.035 1.4777-.043 2.0155-.043l18.0938.01h1.795c.3918 0 .5167-.2899.5175-.5703v-.5742l.01-4.1465H56.215L26.4572.0052zm91.879.086v4.4844c0 .354.3064.6718.67.6718l17.746-.01c.7721 0 1.4023.6278 1.4023 1.3907l-.01 41.832h20.8086c.4886 0 .6055-.3625.6055-.6055l-.2266-41.2168c0-.772.63-1.4023 1.3906-1.4023l17.8575-.012.01-5.1328h-60.2578zm64.9511 0l-.01 42.0137c0 3.5097 2.8455 6.3554 6.3555 6.3554l52.4277-.01c.534 0 .545-.4955.545-.6738v-4.6172h-32.8106c-.788-.1346-1.5278-.5294-1.7227-1.6133V.0838h-24.787zM85.0507 17.1504c1.7037.017 3.159 1.045 3.758 2.4141l4.3944 9.6895H76.0156l5.4336-10.1329c.7696-1.2356 2.135-1.9852 3.6015-1.9707z" fill="#172a7e" fill-rule="evenodd"/></svg>